<mxfile host="app.diagrams.net" modified="2023-07-24T19:34:41.350Z" agent="Mozilla/5.0 (Windows NT 10.0; Win64; x64) AppleWebKit/537.36 (KHTML, like Gecko) Chrome/115.0.0.0 Safari/537.36" etag="A2kVkc2YZFoW_KorzT0h" version="21.6.5" type="device" pages="3">
  <diagram name="Página-1" id="xqfwCQ_3oLauZTTI9_K2">
    <mxGraphModel dx="1050" dy="517" grid="1" gridSize="10" guides="1" tooltips="1" connect="1" arrows="1" fold="1" page="1" pageScale="1" pageWidth="1169" pageHeight="827" math="0" shadow="0">
      <root>
        <mxCell id="0" />
        <mxCell id="1" parent="0" />
        <mxCell id="-hZ1OXbbcqpRYNSbG6rX-4" style="edgeStyle=orthogonalEdgeStyle;rounded=0;orthogonalLoop=1;jettySize=auto;html=1;exitX=1;exitY=0.5;exitDx=0;exitDy=0;entryX=0;entryY=0.5;entryDx=0;entryDy=0;endArrow=none;endFill=0;" edge="1" parent="1" source="-hZ1OXbbcqpRYNSbG6rX-1" target="-hZ1OXbbcqpRYNSbG6rX-3">
          <mxGeometry relative="1" as="geometry" />
        </mxCell>
        <mxCell id="-hZ1OXbbcqpRYNSbG6rX-1" value="Filme" style="rounded=0;whiteSpace=wrap;html=1;" vertex="1" parent="1">
          <mxGeometry x="350" y="330" width="120" height="60" as="geometry" />
        </mxCell>
        <mxCell id="-hZ1OXbbcqpRYNSbG6rX-14" style="edgeStyle=orthogonalEdgeStyle;rounded=0;orthogonalLoop=1;jettySize=auto;html=1;exitX=0.5;exitY=0;exitDx=0;exitDy=0;entryX=0.5;entryY=1;entryDx=0;entryDy=0;endArrow=none;endFill=0;" edge="1" parent="1" source="-hZ1OXbbcqpRYNSbG6rX-2" target="-hZ1OXbbcqpRYNSbG6rX-13">
          <mxGeometry relative="1" as="geometry" />
        </mxCell>
        <mxCell id="-hZ1OXbbcqpRYNSbG6rX-2" value="Genero" style="rounded=0;whiteSpace=wrap;html=1;" vertex="1" parent="1">
          <mxGeometry x="800" y="330" width="120" height="60" as="geometry" />
        </mxCell>
        <mxCell id="-hZ1OXbbcqpRYNSbG6rX-5" style="edgeStyle=orthogonalEdgeStyle;rounded=0;orthogonalLoop=1;jettySize=auto;html=1;exitX=1;exitY=0.5;exitDx=0;exitDy=0;entryX=0;entryY=0.5;entryDx=0;entryDy=0;endArrow=none;endFill=0;" edge="1" parent="1" source="-hZ1OXbbcqpRYNSbG6rX-3" target="-hZ1OXbbcqpRYNSbG6rX-2">
          <mxGeometry relative="1" as="geometry" />
        </mxCell>
        <mxCell id="-hZ1OXbbcqpRYNSbG6rX-3" value="possui" style="rhombus;whiteSpace=wrap;html=1;" vertex="1" parent="1">
          <mxGeometry x="600" y="320" width="80" height="80" as="geometry" />
        </mxCell>
        <mxCell id="-hZ1OXbbcqpRYNSbG6rX-6" value="N" style="text;html=1;align=center;verticalAlign=middle;resizable=0;points=[];autosize=1;strokeColor=none;fillColor=none;" vertex="1" parent="1">
          <mxGeometry x="470" y="330" width="30" height="30" as="geometry" />
        </mxCell>
        <mxCell id="-hZ1OXbbcqpRYNSbG6rX-7" value="1" style="text;html=1;align=center;verticalAlign=middle;resizable=0;points=[];autosize=1;strokeColor=none;fillColor=none;" vertex="1" parent="1">
          <mxGeometry x="770" y="330" width="30" height="30" as="geometry" />
        </mxCell>
        <mxCell id="-hZ1OXbbcqpRYNSbG6rX-11" style="edgeStyle=orthogonalEdgeStyle;rounded=0;orthogonalLoop=1;jettySize=auto;html=1;exitX=0.5;exitY=1;exitDx=0;exitDy=0;entryX=0.5;entryY=0;entryDx=0;entryDy=0;endArrow=none;endFill=0;" edge="1" parent="1" source="-hZ1OXbbcqpRYNSbG6rX-8" target="-hZ1OXbbcqpRYNSbG6rX-1">
          <mxGeometry relative="1" as="geometry" />
        </mxCell>
        <mxCell id="-hZ1OXbbcqpRYNSbG6rX-8" value="NOME" style="ellipse;whiteSpace=wrap;html=1;" vertex="1" parent="1">
          <mxGeometry x="250" y="240" width="120" height="40" as="geometry" />
        </mxCell>
        <mxCell id="-hZ1OXbbcqpRYNSbG6rX-12" style="edgeStyle=orthogonalEdgeStyle;rounded=0;orthogonalLoop=1;jettySize=auto;html=1;exitX=0.5;exitY=1;exitDx=0;exitDy=0;endArrow=none;endFill=0;" edge="1" parent="1" source="-hZ1OXbbcqpRYNSbG6rX-10">
          <mxGeometry relative="1" as="geometry">
            <mxPoint x="410" y="330" as="targetPoint" />
          </mxGeometry>
        </mxCell>
        <mxCell id="-hZ1OXbbcqpRYNSbG6rX-10" value="LANÇAMENTO" style="ellipse;whiteSpace=wrap;html=1;" vertex="1" parent="1">
          <mxGeometry x="460" y="240" width="120" height="40" as="geometry" />
        </mxCell>
        <mxCell id="-hZ1OXbbcqpRYNSbG6rX-13" value="NOME" style="ellipse;whiteSpace=wrap;html=1;" vertex="1" parent="1">
          <mxGeometry x="800" y="240" width="120" height="40" as="geometry" />
        </mxCell>
        <mxCell id="hsf13NtrId8A_w___RC1-1" value="Você deverá criar a modelagem para o catálogo de filmes, observando a seguinte situação:&#xa;&#xa;&#xa;- um filme possui apenas um único gênero.&#xa;- um gênero pode definir mais de um filme." style="text;whiteSpace=wrap;" vertex="1" parent="1">
          <mxGeometry x="250" y="10" width="520" height="100" as="geometry" />
        </mxCell>
      </root>
    </mxGraphModel>
  </diagram>
  <diagram id="RX0N-pSOHXhckrcNFLdA" name="Página-2">
    <mxGraphModel dx="2919" dy="862" grid="1" gridSize="10" guides="1" tooltips="1" connect="1" arrows="1" fold="1" page="1" pageScale="1" pageWidth="1169" pageHeight="827" math="0" shadow="0">
      <root>
        <mxCell id="0" />
        <mxCell id="1" parent="0" />
        <mxCell id="58X_1UOyd4O7PZKYkvHO-9" style="edgeStyle=orthogonalEdgeStyle;rounded=0;orthogonalLoop=1;jettySize=auto;html=1;exitX=1;exitY=0.5;exitDx=0;exitDy=0;entryX=0;entryY=0.5;entryDx=0;entryDy=0;endArrow=none;endFill=0;" edge="1" parent="1" source="58X_1UOyd4O7PZKYkvHO-1" target="58X_1UOyd4O7PZKYkvHO-3">
          <mxGeometry relative="1" as="geometry" />
        </mxCell>
        <mxCell id="58X_1UOyd4O7PZKYkvHO-25" style="edgeStyle=orthogonalEdgeStyle;rounded=0;orthogonalLoop=1;jettySize=auto;html=1;exitX=0.5;exitY=0;exitDx=0;exitDy=0;entryX=0.5;entryY=1;entryDx=0;entryDy=0;endArrow=none;endFill=0;" edge="1" parent="1" source="58X_1UOyd4O7PZKYkvHO-1" target="58X_1UOyd4O7PZKYkvHO-24">
          <mxGeometry relative="1" as="geometry" />
        </mxCell>
        <mxCell id="58X_1UOyd4O7PZKYkvHO-1" value="Pessoa" style="rounded=0;whiteSpace=wrap;html=1;" vertex="1" parent="1">
          <mxGeometry x="-980" y="320" width="120" height="60" as="geometry" />
        </mxCell>
        <mxCell id="58X_1UOyd4O7PZKYkvHO-2" value="Contatos" style="rounded=0;whiteSpace=wrap;html=1;" vertex="1" parent="1">
          <mxGeometry x="-574" y="320" width="120" height="60" as="geometry" />
        </mxCell>
        <mxCell id="58X_1UOyd4O7PZKYkvHO-8" style="edgeStyle=orthogonalEdgeStyle;rounded=0;orthogonalLoop=1;jettySize=auto;html=1;exitX=1;exitY=0.5;exitDx=0;exitDy=0;endArrow=none;endFill=0;" edge="1" parent="1" source="58X_1UOyd4O7PZKYkvHO-3" target="58X_1UOyd4O7PZKYkvHO-2">
          <mxGeometry relative="1" as="geometry" />
        </mxCell>
        <mxCell id="58X_1UOyd4O7PZKYkvHO-3" value="Possui" style="rhombus;whiteSpace=wrap;html=1;" vertex="1" parent="1">
          <mxGeometry x="-760" y="310" width="80" height="80" as="geometry" />
        </mxCell>
        <mxCell id="58X_1UOyd4O7PZKYkvHO-6" style="edgeStyle=orthogonalEdgeStyle;rounded=0;orthogonalLoop=1;jettySize=auto;html=1;exitX=0;exitY=0.5;exitDx=0;exitDy=0;entryX=1;entryY=0.5;entryDx=0;entryDy=0;endArrow=none;endFill=0;" edge="1" parent="1" source="58X_1UOyd4O7PZKYkvHO-4" target="58X_1UOyd4O7PZKYkvHO-2">
          <mxGeometry relative="1" as="geometry" />
        </mxCell>
        <mxCell id="58X_1UOyd4O7PZKYkvHO-4" value="Telefone" style="ellipse;whiteSpace=wrap;html=1;" vertex="1" parent="1">
          <mxGeometry x="-260" y="270" width="120" height="50" as="geometry" />
        </mxCell>
        <mxCell id="58X_1UOyd4O7PZKYkvHO-7" style="edgeStyle=orthogonalEdgeStyle;rounded=0;orthogonalLoop=1;jettySize=auto;html=1;exitX=0;exitY=0.5;exitDx=0;exitDy=0;entryX=1.048;entryY=0.513;entryDx=0;entryDy=0;entryPerimeter=0;endArrow=none;endFill=0;" edge="1" parent="1" source="58X_1UOyd4O7PZKYkvHO-5" target="58X_1UOyd4O7PZKYkvHO-2">
          <mxGeometry relative="1" as="geometry" />
        </mxCell>
        <mxCell id="58X_1UOyd4O7PZKYkvHO-5" value="Email" style="ellipse;whiteSpace=wrap;html=1;" vertex="1" parent="1">
          <mxGeometry x="-260" y="380" width="120" height="50" as="geometry" />
        </mxCell>
        <mxCell id="58X_1UOyd4O7PZKYkvHO-10" value="1" style="text;html=1;align=center;verticalAlign=middle;resizable=0;points=[];autosize=1;strokeColor=none;fillColor=none;" vertex="1" parent="1">
          <mxGeometry x="-860" y="320" width="30" height="30" as="geometry" />
        </mxCell>
        <mxCell id="58X_1UOyd4O7PZKYkvHO-11" value="N" style="text;html=1;align=center;verticalAlign=middle;resizable=0;points=[];autosize=1;strokeColor=none;fillColor=none;" vertex="1" parent="1">
          <mxGeometry x="-604" y="320" width="30" height="30" as="geometry" />
        </mxCell>
        <mxCell id="58X_1UOyd4O7PZKYkvHO-22" style="edgeStyle=orthogonalEdgeStyle;rounded=0;orthogonalLoop=1;jettySize=auto;html=1;exitX=0.5;exitY=0;exitDx=0;exitDy=0;entryX=0.5;entryY=1;entryDx=0;entryDy=0;endArrow=none;endFill=0;" edge="1" parent="1" source="58X_1UOyd4O7PZKYkvHO-12" target="58X_1UOyd4O7PZKYkvHO-3">
          <mxGeometry relative="1" as="geometry" />
        </mxCell>
        <mxCell id="58X_1UOyd4O7PZKYkvHO-12" value="CNH" style="rounded=0;whiteSpace=wrap;html=1;" vertex="1" parent="1">
          <mxGeometry x="-780" y="540" width="120" height="60" as="geometry" />
        </mxCell>
        <mxCell id="58X_1UOyd4O7PZKYkvHO-14" value="1" style="text;html=1;align=center;verticalAlign=middle;resizable=0;points=[];autosize=1;strokeColor=none;fillColor=none;" vertex="1" parent="1">
          <mxGeometry x="-760" y="510" width="30" height="30" as="geometry" />
        </mxCell>
        <mxCell id="58X_1UOyd4O7PZKYkvHO-23" value="1" style="text;html=1;align=center;verticalAlign=middle;resizable=0;points=[];autosize=1;strokeColor=none;fillColor=none;" vertex="1" parent="1">
          <mxGeometry x="-860" y="350" width="30" height="30" as="geometry" />
        </mxCell>
        <mxCell id="58X_1UOyd4O7PZKYkvHO-24" value="Nome" style="ellipse;whiteSpace=wrap;html=1;" vertex="1" parent="1">
          <mxGeometry x="-980" y="220" width="120" height="40" as="geometry" />
        </mxCell>
        <mxCell id="58X_1UOyd4O7PZKYkvHO-27" style="edgeStyle=orthogonalEdgeStyle;rounded=0;orthogonalLoop=1;jettySize=auto;html=1;exitX=0.5;exitY=0;exitDx=0;exitDy=0;entryX=0.5;entryY=1;entryDx=0;entryDy=0;endArrow=none;endFill=0;" edge="1" parent="1" source="58X_1UOyd4O7PZKYkvHO-26" target="58X_1UOyd4O7PZKYkvHO-12">
          <mxGeometry relative="1" as="geometry" />
        </mxCell>
        <mxCell id="58X_1UOyd4O7PZKYkvHO-26" value="Numero" style="ellipse;whiteSpace=wrap;html=1;" vertex="1" parent="1">
          <mxGeometry x="-890" y="680" width="120" height="40" as="geometry" />
        </mxCell>
        <mxCell id="58X_1UOyd4O7PZKYkvHO-29" style="edgeStyle=orthogonalEdgeStyle;rounded=0;orthogonalLoop=1;jettySize=auto;html=1;exitX=0.5;exitY=0;exitDx=0;exitDy=0;entryX=0.5;entryY=1;entryDx=0;entryDy=0;" edge="1" parent="1" source="58X_1UOyd4O7PZKYkvHO-28" target="58X_1UOyd4O7PZKYkvHO-12">
          <mxGeometry relative="1" as="geometry" />
        </mxCell>
        <mxCell id="58X_1UOyd4O7PZKYkvHO-28" value="Categoria" style="ellipse;whiteSpace=wrap;html=1;" vertex="1" parent="1">
          <mxGeometry x="-660" y="680" width="120" height="40" as="geometry" />
        </mxCell>
        <mxCell id="QtggETcATfSxz_s04TcV-1" value="Construa a modelagem que represente pessoas e seus dados, observando que:&#xa;&#xa;&#xa;- uma pessoa pode ter vários telefones e vários emails, porém, pode possuir somente uma CNH." style="text;whiteSpace=wrap;" vertex="1" parent="1">
          <mxGeometry x="-980" y="40" width="560" height="80" as="geometry" />
        </mxCell>
      </root>
    </mxGraphModel>
  </diagram>
  <diagram id="n0i-X0B5IhQp-RxhP8OJ" name="Página-3">
    <mxGraphModel dx="1235" dy="608" grid="1" gridSize="10" guides="1" tooltips="1" connect="1" arrows="1" fold="1" page="1" pageScale="1" pageWidth="1169" pageHeight="827" math="0" shadow="0">
      <root>
        <mxCell id="0" />
        <mxCell id="1" parent="0" />
        <mxCell id="YpF42dJTBE5C7rZLP-6P-1" value="Empresa" style="rounded=0;whiteSpace=wrap;html=1;" vertex="1" parent="1">
          <mxGeometry x="240" y="280" width="120" height="60" as="geometry" />
        </mxCell>
        <mxCell id="LptKS4q_2F5SlSsMaW0y-1" value="Cliente" style="rounded=0;whiteSpace=wrap;html=1;" vertex="1" parent="1">
          <mxGeometry x="710" y="550" width="120" height="60" as="geometry" />
        </mxCell>
        <mxCell id="LptKS4q_2F5SlSsMaW0y-4" style="edgeStyle=orthogonalEdgeStyle;rounded=0;orthogonalLoop=1;jettySize=auto;html=1;exitX=1;exitY=0.5;exitDx=0;exitDy=0;entryX=0;entryY=0.5;entryDx=0;entryDy=0;endArrow=none;endFill=0;" edge="1" parent="1" source="LptKS4q_2F5SlSsMaW0y-2" target="LptKS4q_2F5SlSsMaW0y-1">
          <mxGeometry relative="1" as="geometry" />
        </mxCell>
        <mxCell id="LptKS4q_2F5SlSsMaW0y-2" value="Possui" style="rhombus;whiteSpace=wrap;html=1;" vertex="1" parent="1">
          <mxGeometry x="500" y="540" width="80" height="80" as="geometry" />
        </mxCell>
        <mxCell id="LptKS4q_2F5SlSsMaW0y-11" style="edgeStyle=orthogonalEdgeStyle;rounded=0;orthogonalLoop=1;jettySize=auto;html=1;exitX=0;exitY=0.5;exitDx=0;exitDy=0;entryX=1;entryY=0.5;entryDx=0;entryDy=0;endArrow=none;endFill=0;" edge="1" parent="1" source="LptKS4q_2F5SlSsMaW0y-5" target="LptKS4q_2F5SlSsMaW0y-1">
          <mxGeometry relative="1" as="geometry" />
        </mxCell>
        <mxCell id="LptKS4q_2F5SlSsMaW0y-5" value="CPF" style="ellipse;whiteSpace=wrap;html=1;" vertex="1" parent="1">
          <mxGeometry x="930" y="600" width="120" height="50" as="geometry" />
        </mxCell>
        <mxCell id="LptKS4q_2F5SlSsMaW0y-10" style="edgeStyle=orthogonalEdgeStyle;rounded=0;orthogonalLoop=1;jettySize=auto;html=1;exitX=0;exitY=0.5;exitDx=0;exitDy=0;entryX=1;entryY=0.5;entryDx=0;entryDy=0;endArrow=none;endFill=0;" edge="1" parent="1" source="LptKS4q_2F5SlSsMaW0y-6" target="LptKS4q_2F5SlSsMaW0y-1">
          <mxGeometry relative="1" as="geometry" />
        </mxCell>
        <mxCell id="LptKS4q_2F5SlSsMaW0y-6" value="Nome" style="ellipse;whiteSpace=wrap;html=1;" vertex="1" parent="1">
          <mxGeometry x="930" y="500" width="120" height="50" as="geometry" />
        </mxCell>
        <mxCell id="LptKS4q_2F5SlSsMaW0y-17" style="edgeStyle=orthogonalEdgeStyle;rounded=0;orthogonalLoop=1;jettySize=auto;html=1;exitX=1;exitY=0.5;exitDx=0;exitDy=0;endArrow=none;endFill=0;" edge="1" parent="1" source="LptKS4q_2F5SlSsMaW0y-7" target="LptKS4q_2F5SlSsMaW0y-2">
          <mxGeometry relative="1" as="geometry" />
        </mxCell>
        <mxCell id="LptKS4q_2F5SlSsMaW0y-7" value="Veiculos" style="rounded=0;whiteSpace=wrap;html=1;" vertex="1" parent="1">
          <mxGeometry x="240" y="550" width="120" height="60" as="geometry" />
        </mxCell>
        <mxCell id="LptKS4q_2F5SlSsMaW0y-16" style="edgeStyle=orthogonalEdgeStyle;rounded=0;orthogonalLoop=1;jettySize=auto;html=1;exitX=0.5;exitY=0;exitDx=0;exitDy=0;endArrow=none;endFill=0;" edge="1" parent="1" source="LptKS4q_2F5SlSsMaW0y-9">
          <mxGeometry relative="1" as="geometry">
            <mxPoint x="300" y="610" as="targetPoint" />
          </mxGeometry>
        </mxCell>
        <mxCell id="LptKS4q_2F5SlSsMaW0y-9" value="Modelo" style="ellipse;whiteSpace=wrap;html=1;" vertex="1" parent="1">
          <mxGeometry x="420" y="670" width="120" height="50" as="geometry" />
        </mxCell>
        <mxCell id="LptKS4q_2F5SlSsMaW0y-14" style="edgeStyle=orthogonalEdgeStyle;rounded=0;orthogonalLoop=1;jettySize=auto;html=1;exitX=0.5;exitY=0;exitDx=0;exitDy=0;entryX=0.5;entryY=1;entryDx=0;entryDy=0;endArrow=none;endFill=0;" edge="1" parent="1" source="LptKS4q_2F5SlSsMaW0y-12" target="LptKS4q_2F5SlSsMaW0y-7">
          <mxGeometry relative="1" as="geometry" />
        </mxCell>
        <mxCell id="LptKS4q_2F5SlSsMaW0y-12" value="Placa" style="ellipse;whiteSpace=wrap;html=1;" vertex="1" parent="1">
          <mxGeometry x="60" y="670" width="120" height="50" as="geometry" />
        </mxCell>
        <mxCell id="LptKS4q_2F5SlSsMaW0y-15" style="edgeStyle=orthogonalEdgeStyle;rounded=0;orthogonalLoop=1;jettySize=auto;html=1;exitX=0.5;exitY=0;exitDx=0;exitDy=0;endArrow=none;endFill=0;" edge="1" parent="1" source="LptKS4q_2F5SlSsMaW0y-13">
          <mxGeometry relative="1" as="geometry">
            <mxPoint x="299.7058823529412" y="610" as="targetPoint" />
          </mxGeometry>
        </mxCell>
        <mxCell id="LptKS4q_2F5SlSsMaW0y-13" value="Marca" style="ellipse;whiteSpace=wrap;html=1;" vertex="1" parent="1">
          <mxGeometry x="240" y="670" width="120" height="50" as="geometry" />
        </mxCell>
        <mxCell id="hf-QTZ4NN4tmA-jrHoFI-1" value="1" style="text;html=1;align=center;verticalAlign=middle;resizable=0;points=[];autosize=1;strokeColor=none;fillColor=none;" vertex="1" parent="1">
          <mxGeometry x="300" y="340" width="30" height="30" as="geometry" />
        </mxCell>
        <mxCell id="hf-QTZ4NN4tmA-jrHoFI-3" style="edgeStyle=orthogonalEdgeStyle;rounded=0;orthogonalLoop=1;jettySize=auto;html=1;exitX=0.5;exitY=1;exitDx=0;exitDy=0;entryX=0.5;entryY=0;entryDx=0;entryDy=0;endArrow=none;endFill=0;" edge="1" parent="1" source="hf-QTZ4NN4tmA-jrHoFI-2" target="LptKS4q_2F5SlSsMaW0y-7">
          <mxGeometry relative="1" as="geometry" />
        </mxCell>
        <mxCell id="hf-QTZ4NN4tmA-jrHoFI-4" style="edgeStyle=orthogonalEdgeStyle;rounded=0;orthogonalLoop=1;jettySize=auto;html=1;exitX=0.5;exitY=0;exitDx=0;exitDy=0;entryX=0.5;entryY=1;entryDx=0;entryDy=0;endArrow=none;endFill=0;" edge="1" parent="1" source="hf-QTZ4NN4tmA-jrHoFI-2" target="YpF42dJTBE5C7rZLP-6P-1">
          <mxGeometry relative="1" as="geometry" />
        </mxCell>
        <mxCell id="hf-QTZ4NN4tmA-jrHoFI-2" value="Possui" style="rhombus;whiteSpace=wrap;html=1;" vertex="1" parent="1">
          <mxGeometry x="260" y="410" width="80" height="80" as="geometry" />
        </mxCell>
        <mxCell id="hf-QTZ4NN4tmA-jrHoFI-5" value="N" style="text;html=1;align=center;verticalAlign=middle;resizable=0;points=[];autosize=1;strokeColor=none;fillColor=none;" vertex="1" parent="1">
          <mxGeometry x="300" y="520" width="30" height="30" as="geometry" />
        </mxCell>
        <mxCell id="hf-QTZ4NN4tmA-jrHoFI-6" value="1" style="text;html=1;align=center;verticalAlign=middle;resizable=0;points=[];autosize=1;strokeColor=none;fillColor=none;" vertex="1" parent="1">
          <mxGeometry x="680" y="550" width="30" height="30" as="geometry" />
        </mxCell>
        <mxCell id="hf-QTZ4NN4tmA-jrHoFI-7" value="N" style="text;html=1;align=center;verticalAlign=middle;resizable=0;points=[];autosize=1;strokeColor=none;fillColor=none;" vertex="1" parent="1">
          <mxGeometry x="360" y="550" width="30" height="30" as="geometry" />
        </mxCell>
        <mxCell id="hf-QTZ4NN4tmA-jrHoFI-8" value="Construa o Modelo Entidade Relacionamento considerando o seguinte cenário:&#xa;&#xa;&#xa;- uma empresa possui vários veículos&#xa;- um veículo possui marca(gm, ford, fiat), modelo(onix, fiesta, argo) e placa&#xa;- um cliente (cpf, nome) aluga um ou mais veículos" style="text;whiteSpace=wrap;fontSize=14;" vertex="1" parent="1">
          <mxGeometry x="60" y="10" width="600" height="170" as="geometry" />
        </mxCell>
      </root>
    </mxGraphModel>
  </diagram>
</mxfile>
